Coordinates
version=1
nRows=60
nColumns=12
inDegrees=yes

Units are S.I. units (second, meters, Newtons, ...)
Angles are in degrees

endheader
time	SC_y	SC_z	SC_x	AC_y	AC_z	AC_x	GH_y	GH_z	GH_yy	EL_x	PS_y
       0.0              -57.22          17.62          54.48          33.15          8.996           4.58         -81.67         -13.33         -171.9          27.26          15.52
  0.008411              -57.22          17.63          54.48          33.15          8.995           4.58         -81.65         -13.33         -171.9          27.27          15.54
   0.01682              -57.21          17.63          54.47          33.15          8.995          4.579         -81.63         -13.33         -171.9          27.29          15.56
   0.02523              -57.21          17.63          54.46          33.15          8.994          4.578         -81.61         -13.33         -171.9           27.3          15.58
   0.03364              -57.21          17.63          54.46          33.15          8.994          4.578         -81.59         -13.33         -171.9          27.32           15.6
   0.04205              -57.21          17.64          54.45          33.15          8.993          4.577         -81.56         -13.32         -171.9          27.34          15.63
   0.05047              -57.21          17.64          54.44          33.15          8.992          4.576         -81.54         -13.32         -171.8          27.36          15.65
   0.05888              -57.21          17.64          54.43          33.15          8.992          4.575         -81.51         -13.32         -171.8          27.38          15.68
   0.06729               -57.2          17.65          54.42          33.15          8.991          4.575         -81.48         -13.31         -171.8           27.4          15.71
    0.0757               -57.2          17.65          54.41          33.15           8.99          4.574         -81.45         -13.31         -171.8          27.42          15.74
   0.08411               -57.2          17.66           54.4          33.15          8.989          4.573         -81.41         -13.31         -171.8          27.45          15.78
   0.09252               -57.2          17.66          54.39          33.15          8.988          4.572         -81.37          -13.3         -171.7          27.48          15.82
    0.1009              -57.19          17.67          54.38          33.14          8.987          4.571         -81.34          -13.3         -171.7          27.51          15.86
    0.1093              -57.19          17.67          54.36          33.14          8.986          4.569         -81.29         -13.29         -171.7          27.54           15.9
    0.1178              -57.19          17.68          54.35          33.14          8.985          4.568         -81.25         -13.29         -171.6          27.57          15.95
    0.1262              -57.18          17.69          54.33          33.14          8.984          4.567          -81.2         -13.28         -171.6          27.61           16.0
    0.1346              -57.18          17.69          54.31          33.14          8.983          4.565         -81.14         -13.28         -171.6          27.65          16.06
     0.143              -57.18           17.7          54.29          33.14          8.981          4.563         -81.08         -13.27         -171.5           27.7          16.12
    0.1514              -57.17          17.71          54.27          33.14          8.979          4.561         -81.02         -13.26         -171.5          27.74          16.19
    0.1598              -57.17          17.72          54.25          33.14          8.978          4.559         -80.94         -13.26         -171.4           27.8          16.26
    0.1682              -57.16          17.73          54.22          33.13          8.976          4.557         -80.87         -13.25         -171.4          27.85          16.34
    0.1766              -57.16          17.74           54.2          33.13          8.974          4.555         -80.78         -13.24         -171.3          27.92          16.43
     0.185              -57.15          17.76          54.17          33.13          8.971          4.552         -80.68         -13.23         -171.2          27.99          16.52
    0.1935              -57.14          17.77          54.13          33.13          8.969          4.549         -80.58         -13.22         -171.2          28.07          16.63
    0.2019              -57.13          17.79          54.09          33.13          8.966          4.545         -80.46         -13.21         -171.1          28.15          16.75
    0.2103              -57.12           17.8          54.05          33.12          8.962          4.542         -80.33         -13.19         -171.0          28.25          16.89
    0.2187              -57.11          17.82           54.0          33.12          8.959          4.537         -80.18         -13.18         -170.9          28.36          17.04
    0.2271               -57.1          17.84          53.95          33.12          8.955          4.533         -80.02         -13.16         -170.8          28.48          17.21
    0.2355              -57.09          17.87          53.89          33.11           8.95          4.527         -79.83         -13.14         -170.6          28.62           17.4
    0.2439              -57.07           17.9          53.82          33.11          8.945          4.521         -79.62         -13.12         -170.5          28.78          17.61
    0.2523              -57.06          17.93          53.74           33.1          8.938          4.514         -79.38         -13.09         -170.3          28.96          17.86
    0.2607              -57.04          17.97          53.65           33.1          8.932          4.506          -79.1         -13.06         -170.1          29.16          18.14
    0.2692              -57.02          18.01          53.55          33.09          8.924          4.497         -78.78         -13.03         -169.9           29.4          18.47
    0.2776              -56.99          18.06          53.43          33.08          8.914          4.486         -78.41         -12.99         -169.6          29.67          18.85
     0.286              -56.96          18.12          53.29          33.07          8.903          4.474         -77.97         -12.94         -169.3           30.0           19.3
    0.2944              -56.93          18.19          53.12          33.06           8.89          4.459         -77.46         -12.88         -168.9          30.38          19.82
    0.3028              -56.88          18.27          52.93          33.05          8.875          4.442         -76.85         -12.82         -168.5          30.83          20.45
    0.3112              -56.83          18.37          52.69          33.03          8.857          4.421         -76.12         -12.74         -168.0          31.37           21.2
    0.3196              -56.77          18.49           52.4          33.01          8.835          4.395         -75.23         -12.65         -167.3          32.02           22.1
     0.328               -56.7          18.63          52.05          32.99          8.808          4.364         -74.15         -12.53         -166.6          32.82          23.21
    0.3364               -56.6          18.81          51.62          32.96          8.774          4.326         -72.82         -12.39         -165.6          33.81          24.57
    0.3448              -56.49          19.04          51.09          32.93          8.733          4.278         -71.15         -12.21         -164.4          35.04          26.27
    0.3533              -56.34          19.32          50.41          32.88           8.68          4.218         -69.06         -11.98         -162.9           36.6          28.42
    0.3617              -56.16          19.67          49.55          32.83          8.614          4.141         -66.39          -11.7         -161.0          38.57          31.14
    0.3701              -55.92          20.13          48.45          32.75          8.528          4.043         -62.98         -11.33         -158.6          41.09          34.63
    0.3785              -55.62          20.72          47.03          32.66          8.419          3.918          -58.6         -10.86         -155.5          44.33          39.11
    0.3869              -55.23          21.47          45.23          32.54          8.279          3.757         -53.01         -10.27         -151.5          48.47          44.82
    0.3953              -54.75          22.42          42.95          32.39          8.103          3.555         -45.98         -9.513         -146.5          53.67          52.01
    0.4037              -54.15          23.57          40.19          32.21          7.889          3.309         -37.42         -8.596         -140.4          60.01          60.77
    0.4121              -53.47           24.9          36.98           32.0          7.641          3.024         -27.49         -7.533         -133.3          67.36          70.93
    0.4205              -52.72          26.34           33.5          31.77          7.372          2.715         -16.73         -6.381         -125.6          75.32          81.92
     0.429              -51.98          27.79          30.03          31.54          7.103          2.407         -5.982          -5.23         -118.0          83.28          92.92
    0.4374              -51.29          29.12          26.82          31.33          6.854          2.122          3.947         -4.167         -110.9          90.62          103.1
    0.4458               -50.7          30.27          24.06          31.15           6.64          1.876          12.51         -3.249         -104.8          96.96          111.8
    0.4542              -50.21          31.22          21.78           31.0          6.464          1.674          19.54         -2.497         -99.78          102.2          119.0
    0.4626              -49.82          31.97          19.98          30.88          6.325          1.513          25.13         -1.898          -95.8          106.3          124.7
     0.471              -49.52          32.56          18.56          30.79          6.215          1.387          29.51         -1.429         -92.67          109.5          129.2
    0.4794              -49.29          33.01          17.46          30.71           6.13          1.289          32.92         -1.064         -90.24          112.1          132.7
    0.4878               -49.1          33.37           16.6          30.66          6.063          1.213          35.59        -0.7788         -88.34          114.0          135.4
    0.4962              -48.96          33.65          15.92          30.61          6.011          1.153          37.68        -0.5543         -86.85          115.6          137.6
